<svg xmlns="http://www.w3.org/2000/svg" width="13" height="19" viewBox="0 0 13 19" class="bag-logo">
    <path
       id="path5971-2"
       d="M 8.1639821,18.927211 C 7.8287226,18.78959 7.492401,18.567951 7.3642952,18.205513 7.0643162,18.099635 6.8409338,17.809554 6.7643519,17.471117 6.6373116,17.101269 6.3818004,16.76389 6.2769866,16.383454 6.0158275,16.291694 6.065228,15.858681 5.8760831,15.651522 5.7384621,15.294733 5.4892956,14.989821 5.3308417,14.639738 5.1085026,14.300939 5.1190831,13.876397 4.9013522,13.522431 4.8818132,13.405972 4.7672336,12.89214 4.6119538,13.10812 c -0.2329197,0.222339 -0.2293806,0.578413 -0.4884235,0.782747 -0.201178,0.172939 0.035392,0.497599 -0.3211401,0.544537 -0.2858593,0.11646 -0.2399611,0.562535 -0.5067754,0.526185 -0.011429,0.368439 -0.3557204,0.620058 -0.4019615,0.989905 C 3.0665919,16.36828 2.7630737,16.730363 2.3717039,16.800589 2.0646834,17.02997 1.3842689,17.040551 1.301689,16.585329 1.0864282,16.281811 1.2063903,15.939506 1.202888,15.577422 1.2172658,15.218162 1.1741325,14.863843 1.1075893,14.511997 1.061728,13.774772 1.0440691,13.036489 0.99817086,12.299972 0.89583071,11.820724 0.97752592,11.316769 0.87113046,10.841049 0.64174997,10.724589 1.0758108,10.44262 0.90357263,10.201583 0.79769334,9.4710633 0.84005239,8.7278402 0.75533425,7.9962629 0.58593478,7.5611293 0.80473475,7.0755276 0.62121559,6.6400396 0.46239666,6.2207854 0.66707694,5.7570651 0.53299514,5.3275764 0.46239666,4.4301326 0.37067395,3.5358649 0.36359567,2.6355975 0.32123659,2.4309098 0.09185606,2.3815056 0.1800765,2.0963545 0.06007753,1.6612199 0.42711586,1.3683062 0.3671348,0.93211272 0.37635132,0.61449699 0.77933036,0.6744891 0.71651431,0.28205707 0.97767339,-0.02497071 1.4424473,0.04208124 1.663367,0.33499303 1.8892084,0.61026071 2.0318063,0.92752474 2.3582404,1.1449161 2.6970393,1.2613759 2.8353718,1.6463975 3.0802913,1.888492 3.2779302,2.2699851 3.6265908,2.4901997 3.9406784,2.740411 4.0853776,3.0933186 4.4958036,3.2002496 4.6408494,3.5464521 4.9231696,3.7758437 5.2319669,3.9865276 5.4415946,4.2706184 5.6321552,4.5317701 5.9000238,4.567062 6.1110598,4.7590423 6.4650476,4.9319662 6.4805535,5.2397025 6.814051,5.3946287 7.0328511,5.6346046 7.3250624,5.7736514 7.5315122,6.00163 7.7573905,6.2804257 8.089815,6.4522927 8.3608467,6.6866236 c 0.1623214,0.2823275 0.4386654,0.4753662 0.7072277,0.6278239 0.2752787,0.2188 0.4637192,0.5247734 0.7940427,0.7058152 0.2787819,0.1058794 0.4630119,0.28232 0.6948729,0.5067751 0.28232,0.2964404 0.603826,0.5470042 0.919325,0.8010995 0.36597,0.1588187 0.62641,0.4545437 0.973319,0.6341732 0.369848,0.052939 0.773571,0.2929005 0.722048,0.7541645 0.07764,0.314099 -0.359629,0.401254 -0.396314,0.633116 -0.423842,-0.11646 -0.846979,-0.0089 -1.275407,0.05294 -0.415373,0.105879 -0.837803,0.148238 -1.265526,0.162321 -0.379732,0.06352 -0.7689892,0.03882 -1.1465967,0.0129 -0.1517409,0.317601 0.1623206,0.609469 0.2470394,0.923557 0.1341181,0.35432 0.3956092,0.627825 0.5081868,1.014609 0.2187995,0.342338 0.4552515,0.645823 0.6595855,0.99379 0.0953,0.314099 0.397726,0.644762 0.679349,0.75522 0.232919,-0.23292 0.48807,-0.187059 0.718165,0.02618 0.324679,0.10588 0.289398,0.545596 0.31056,0.788045 -0.31056,0.250579 -0.389611,0.739691 -0.885799,0.763338 -0.528656,-0.0085 -0.881209,0.466189 -1.131776,0.87274 -0.2329204,0.324679 -0.5508861,0.641938 -0.8995613,0.842743 -0.2117585,0.11646 -0.3105596,0.303482 -0.607,0.268201 -0.1764407,0.03882 -0.3246788,0.183519 -0.517363,0.105879 z"
       style="fill:#000000;fill-opacity:1;stroke-width:0.39060965" />
    <path
       id="path818"
       d="m 9.0787173,17.491585 c 0.3387989,-0.06352 0.421375,-0.610886 0.6652328,-0.858271 0.1835191,-0.24704 0.4760739,-0.380436 0.6800539,-0.56783 -0.112921,-0.369847 -0.4743078,-0.591121 -0.6306457,-0.94297 -0.1729387,-0.331722 -0.36173,-0.66276 -0.550889,-0.97826 C 9.0519086,13.771583 8.8539154,13.421499 8.6174677,13.080238 8.3880872,12.801456 8.3457286,12.429124 8.20386,12.107273 8.246217,11.681312 7.8435317,11.348168 8.0450414,10.940208 c 0.2188,-0.372671 0.6786415,-0.363499 1.0640171,-0.376199 0.3832593,0.11646 0.7968662,-0.0016 1.1310685,-0.179981 0.261159,0.137621 0.759105,0.392082 0.837095,-0.06352 C 11.408943,10.16523 10.711621,9.9711295 10.617031,9.7879716 10.31001,9.5373934 9.949685,9.3581324 9.7079435,9.0313365 9.4185447,8.7525559 9.0303601,8.6300835 8.7596783,8.3202312 8.4349995,8.0273297 7.9462294,7.8932112 7.7627176,7.4658379 7.4945172,7.2540793 7.3356982,7.0229407 7.0692526,6.8186074 6.8151718,6.4762795 6.4114444,6.3001786 6.1068829,6.0097357 5.8033832,5.7732876 5.5598793,5.4602588 5.2426138,5.2711002 4.8967661,4.9923033 4.5950286,4.7840876 4.3144669,4.4452964 4.0250685,4.1876728 3.7145237,3.9424034 3.414552,3.6794869 3.2169132,3.4289232 3.0514216,3.171653 2.7973186,2.9330873 2.4655979,2.7778075 2.3748854,2.2544461 1.9471619,2.1397514 1.7671818,1.9597677 1.3539245,1.7321431 1.3712184,2.1658157 1.1876992,2.5081354 1.3041591,2.921038 1.282998,3.2961784 c 0.00553,0.6433509 0.0494,1.2867013 0.1693994,1.9205234 0.045861,0.3698468 0.042359,0.6733475 0.0494,1.0431947 0.067059,0.537831 0.1305796,1.0756642 0.1341186,1.6180817 0.09176,0.8074513 0.1058793,1.621612 0.1764409,2.4301208 0.1411602,0.533949 0.059981,1.091545 0.098801,1.638552 1.07e-4,0.605587 0.070599,1.207297 0.098801,1.811118 0.014378,0.420668 0.00958,0.847687 0.081179,1.260586 0.2187999,-0.19056 0.2470393,-0.532537 0.4584255,-0.728045 0.095299,-0.2435 0.4150195,-0.533949 0.3758494,-0.714991 0.4559555,-0.0019 0.2823201,-0.631706 0.5946493,-0.860744 0.2823201,-0.243501 0.3529186,-0.665584 0.6419373,-0.93238 0.1129207,-0.384317 0.4217254,-0.194099 0.6546451,-0.34584 0.2082194,0.289399 0.6511133,0.365969 0.7792191,0.748871 0.1129208,0.358191 -0.095299,0.738637 0.1905607,1.044607 0.08822,0.4129 0.3282183,0.728049 0.5434792,1.087663 0.056479,0.35819 0.2540807,0.599235 0.4781894,0.875207 0.1658603,0.34584 0.2717396,0.707227 0.4573675,1.047077 0.1623212,0.427373 0.3899653,0.888268 0.802865,1.121188 0.1976392,0.405139 0.6955811,0.13058 1.0121394,0.134118 z"
       style="fill:#ffffff;fill-opacity:1;stroke-width:0.39060965"/>
  </svg>