<?xml version="1.0" encoding="UTF-8" standalone="no"?>
<svg
   xmlns:dc="http://purl.org/dc/elements/1.1/"
   xmlns:cc="http://creativecommons.org/ns#"
   xmlns:rdf="http://www.w3.org/1999/02/22-rdf-syntax-ns#"
   xmlns:svg="http://www.w3.org/2000/svg"
   xmlns="http://www.w3.org/2000/svg"
   xmlns:sodipodi="http://sodipodi.sourceforge.net/DTD/sodipodi-0.dtd"
   xmlns:inkscape="http://www.inkscape.org/namespaces/inkscape"
   id="svg1114"
   version="1.1"
   viewBox="0 0 19.843749 19.843749"
   height="75"
   width="75"
   sodipodi:docname="engrenagePetit.svg"
   inkscape:version="0.92.4 (5da689c313, 2019-01-14)">
  <sodipodi:namedview
     pagecolor="#ffffff"
     bordercolor="#666666"
     borderopacity="1"
     objecttolerance="10"
     gridtolerance="10"
     guidetolerance="10"
     inkscape:pageopacity="0"
     inkscape:pageshadow="2"
     inkscape:window-width="1512"
     inkscape:window-height="1149"
     id="namedview9"
     showgrid="false"
     inkscape:zoom="6.2933332"
     inkscape:cx="13.533322"
     inkscape:cy="66.881838"
     inkscape:window-x="0"
     inkscape:window-y="0"
     inkscape:window-maximized="0"
     inkscape:current-layer="svg1114" />
  <defs
     id="defs1108" />
  <metadata
     id="metadata1111">
    <rdf:RDF>
      <cc:Work
         rdf:about="">
        <dc:format>image/svg+xml</dc:format>
        <dc:type
           rdf:resource="http://purl.org/dc/dcmitype/StillImage" />
        <dc:title />
      </cc:Work>
    </rdf:RDF>
  </metadata>
  <path
     inkscape:connector-curvature="0"
     id="path884"
     d="m 14.606072,0.46713623 c 0.07455,-0.031696 0.04999,0.032451 0,0 z M 9.9618048,11.69206 C 10.36314,11.64819 10.811679,11.49593 11.075934,11.152469 11.443507,10.93551 11.630966,10.488603 11.760148,10.097277 11.864866,9.5233685 11.777228,8.8611625 11.24269,8.5188527 10.964178,8.3493157 10.658655,8.2344641 10.343492,8.1146316 9.9475928,8.0306743 9.4402078,8.0192789 9.0874328,8.3334581 8.741159,8.3372315 8.5786672,8.8274758 8.3616289,9.0705273 8.129377,9.5531115 7.9918195,10.15967 8.3597502,10.623529 c 0.2248708,0.648207 0.8816737,1.188316 1.6036036,1.106896 z m -0.198422,0.310075 C 9.108705,11.942704 8.5010284,11.565397 8.1938831,10.973196 8.0012185,10.542845 7.6960272,10.023168 7.9290432,9.5535835 7.9483741,9.1313726 8.2351831,8.7559423 8.4727071,8.4194719 8.7333236,8.2122956 9.0010401,7.9648764 9.3446848,7.8508644 c 0.413,-0.1997239 0.8577612,-0.1198137 1.3009702,0.047639 0.316388,0.1212568 0.634285,0.2645124 0.904229,0.4916687 0.415371,0.4157015 0.598237,1.0587948 0.488748,1.6403459 -0.126552,0.528977 -0.373292,1.097585 -0.82799,1.437593 -0.266396,0.211072 -0.551909,0.438916 -0.879902,0.502045 -0.189991,0.02509 -0.3781342,0.03367 -0.5673572,0.03197 z M 7.1960614,18.779098 C 7.756206,18.496756 8.2060627,18.009597 8.765194,17.720981 9.1196318,17.372059 9.5448728,17.069209 9.6873068,16.55808 c 0.23462,-0.510121 0.213394,-1.052739 0.10172,-1.595159 -0.02266,-0.362734 0.05746,-0.76652 0.4090212,-0.933982 0.315848,-0.147822 0.652378,-0.393336 0.985012,-0.487235 0.440612,-0.0096 0.977764,-0.265598 1.396338,-0.01491 0.336067,0.261314 0.719281,0.50781 0.830813,0.938076 0.168559,0.208667 0.298621,0.522366 0.568258,0.63199 0.283691,0.163689 0.541075,0.21412 0.833897,0.283163 0.36961,-0.06707 0.803457,-0.03538 1.208883,-0.0634 0.433084,-0.04604 0.975524,0.166688 1.334982,-0.104522 0.288979,-0.375846 -0.04372,-1.089906 -0.185355,-1.56586 -0.234505,-0.534005 -0.546471,-1.038749 -0.842148,-1.539586 -0.35569,-0.175056 -0.254393,-0.694403 -0.752215,-0.660075 -0.553901,0.08244 -1.281984,0.05311 -1.561264,-0.521242 -0.249651,-0.527821 -0.136787,-1.1074095 -0.15001,-1.6962702 0.05552,-0.3688836 0.003,-0.884966 0.496017,-0.9142189 0.365339,-0.217821 0.828518,-0.095847 1.225866,-0.230924 0.63489,-0.1283414 1.00152,-0.7972354 1.189544,-1.3667672 C 16.94495,6.0857897 17.210898,5.4984569 17.322246,4.852354 17.616053,4.1068242 16.657022,4.3179625 16.216524,4.2390898 15.529773,4.2607867 14.803276,4.0735997 14.153992,4.3377632 13.686468,4.5705889 13.334935,4.9625276 13.192231,5.4748744 13.010834,5.8410507 12.804035,6.2069532 12.387736,6.3338325 12.075752,6.4761353 11.72445,6.526538 11.422833,6.3376021 10.90241,6.0746121 10.293401,5.9026036 9.7812938,5.606093 9.5722748,5.287829 9.7593888,4.9589431 9.7346448,4.59754 9.6592998,4.0316683 9.8193008,3.3724435 9.3326508,2.9328661 8.813156,2.3683055 8.2243197,1.7581156 7.4674408,1.5344025 7.2623232,1.4217206 6.9322457,1.4191453 6.7921849,1.6553953 6.5367228,2.1057645 6.5499353,2.6305634 6.2881859,3.0668392 6.1457582,3.6805478 5.9501904,4.3093969 6.1069727,4.9301428 6.3033775,5.2728865 6.5358669,5.6407136 6.7977002,5.9257248 7.021267,6.3434734 7.1093837,6.8756491 6.8459389,7.2929166 6.583895,7.8719575 6.0052131,8.2391431 5.5555539,8.6642497 5.1506204,8.8318812 4.6734655,8.7715169 4.3334622,8.4688841 4.011594,8.2894702 3.7179606,8.1631664 3.3402991,8.1498559 2.5566842,8.4589695 1.7868359,8.8412579 1.1495033,9.4074785 1.0049763,9.7592595 0.07441015,10.102881 0.71009884,10.39775 c 0.51733236,0.418739 1.05826376,0.905361 1.69019696,1.201362 0.5164575,0.349564 1.225517,0.419682 1.7670235,0.137162 0.4654619,-0.145727 0.912188,-0.451624 1.4052358,-0.187442 0.2830118,0.04434 0.5328877,0.320604 0.7472449,0.384128 0.5679037,0.498866 1.1644515,1.181825 0.9615883,2.00506 -0.07684,0.50046 -0.5116147,0.76502 -0.8919469,1.032334 -0.5215385,0.631349 -0.3983347,1.550171 -0.2267337,2.300853 0.1309896,0.624671 0.6166417,1.04939 0.9431881,1.565482 0.1133151,0.06471 0.089528,-0.0084 0.090165,-0.05801 z M 6.9614074,19.08473 C 6.7298524,18.808048 6.6035593,18.463617 6.3315309,18.205207 5.882129,17.637439 5.7947202,16.850637 5.765688,16.14785 5.7782353,15.556112 5.8759595,14.883406 6.4405523,14.564925 6.8238937,14.276235 7.2047657,13.835356 7.0518857,13.317707 6.8303845,12.751571 6.4526965,12.241621 5.8977255,11.964685 5.3959944,11.579368 4.6863528,11.700908 4.1829134,11.979683 3.7536843,12.109261 3.2657505,12.244064 2.8015971,12.062509 2.3122077,11.796232 1.7778868,11.572406 1.357749,11.202183 0.98024584,10.960556 0.62640264,10.626047 0.28478114,10.329122 -0.18121743,10.103636 0.32426014,9.7803145 0.50401884,9.5316885 0.84898664,9.2618742 1.0830037,8.8926889 1.4977787,8.7118318 2.0613587,8.2592362 2.7263983,8.0132321 3.3917995,7.7652751 3.953265,7.6930153 4.40198,8.1394792 4.8776978,8.2911399 5.1332876,8.4288958 5.4990592,8.2727448 5.7202646,8.008987 6.0540059,7.7480403 6.3880323,7.457586 6.579001,7.0581948 6.7225368,6.6964805 6.8134672,6.3738489 6.6176354,6.0091821 6.3513538,5.7453488 6.1739048,5.4156421 5.9487301,5.1077359 5.5771733,4.5580141 5.7513888,3.8871014 5.901499,3.2991461 5.9569617,2.8160617 6.2342333,2.382031 6.2975564,1.8908058 6.4510148,1.4912919 6.6181672,0.95717293 7.1251261,0.99914213 7.6448549,1.0486674 8.0695574,1.4243714 8.5285965,1.6597252 c 0.3259506,0.2967182 0.7015603,0.5604194 0.9478203,0.9392929 0.28855,0.2320805 0.476923,0.6053788 0.501224,0.9366232 -0.0086,0.5628249 0.09344,1.1358849 -0.0483,1.6877292 0.3169852,0.2179965 0.6829852,0.3636953 1.0649962,0.5440242 0.348117,0.1607168 0.729983,0.3575635 1.105223,0.1991862 0.354659,0.00378 0.711479,-0.3496207 0.814186,-0.693685 0.18627,-0.3336121 0.222377,-0.7708878 0.611443,-0.9259069 0.25323,-0.257211 0.649344,-0.405504 0.961921,-0.4869332 0.516267,-0.019905 1.123282,0.036979 1.633734,0.023772 0.353078,0.1145687 0.774513,0.00754 1.084925,0.051412 0.516957,0.012641 0.369997,0.7585585 0.279927,1.1175747 -0.198383,0.716259 -0.386738,1.4345085 -0.649726,2.1301934 -0.100588,0.1448592 -0.181145,0.4517371 -0.429473,0.6313396 -0.327212,0.4178334 -0.868451,0.5101109 -1.370267,0.5736449 -0.31957,0.074995 -0.8941,0.059997 -0.875277,0.5107431 -0.06645,0.4219653 -0.01299,0.884853 -0.02469,1.2610945 -0.115437,0.52361 0.424393,1.079785 0.963488,0.962245 0.225856,-0.236647 0.903413,-0.185027 1.098487,0.114653 0.369712,0.234223 0.379655,0.686838 0.638621,1.015317 0.188739,0.527147 0.524221,0.964914 0.664244,1.514701 0.167489,0.517225 0.369962,1.137461 0.122227,1.656468 -0.299447,0.166971 -0.767058,0.105115 -1.143751,0.07141 -0.584019,-0.03962 -1.168697,0.04802 -1.748843,0.0648 -0.37579,-0.114371 -0.670123,-0.192555 -1.032602,-0.4239 -0.447193,-0.259022 -0.490633,-0.849703 -0.900014,-1.121451 -0.33721,-0.07859 -0.581084,-0.557722 -0.974947,-0.31735 -0.372758,0.14337 -0.669384,0.377742 -1.083262,0.405636 -0.250074,0.0782 -0.606051,0.17883 -0.645027,0.519215 -0.05417,0.526175 0.234107,1.032286 0.005,1.537407 -0.09659,0.46518 -0.3050212,0.887145 -0.6550252,1.21221 -0.5233273,0.598389 -1.2394801,0.932803 -1.8798633,1.394879 -0.1868508,0.13862 -0.565389,0.257678 -0.6035275,0.318713 z"
     style="fill:#000000;stroke-width:1" />
</svg>
