<?xml version="1.0" encoding="UTF-8" standalone="no"?>
<svg
   xmlns:dc="http://purl.org/dc/elements/1.1/"
   xmlns:cc="http://creativecommons.org/ns#"
   xmlns:rdf="http://www.w3.org/1999/02/22-rdf-syntax-ns#"
   xmlns:svg="http://www.w3.org/2000/svg"
   xmlns="http://www.w3.org/2000/svg"
   xmlns:sodipodi="http://sodipodi.sourceforge.net/DTD/sodipodi-0.dtd"
   xmlns:inkscape="http://www.inkscape.org/namespaces/inkscape"
   id="svg19859"
   version="1.1"
   viewBox="0 0 39.687501 39.687501"
   height="150"
   width="150"
   sodipodi:docname="engrenageGrand.svg"
   inkscape:version="0.92.4 (5da689c313, 2019-01-14)">
  <sodipodi:namedview
     pagecolor="#ffffff"
     bordercolor="#666666"
     borderopacity="1"
     objecttolerance="10"
     gridtolerance="10"
     guidetolerance="10"
     inkscape:pageopacity="0"
     inkscape:pageshadow="2"
     inkscape:window-width="1607"
     inkscape:window-height="1124"
     id="namedview7"
     showgrid="false"
     inkscape:zoom="3.337544"
     inkscape:cx="-38.639146"
     inkscape:cy="26.755142"
     inkscape:window-x="0"
     inkscape:window-y="0"
     inkscape:window-maximized="0"
     inkscape:current-layer="svg19859" />
  <defs
     id="defs19853" />
  <metadata
     id="metadata19856">
    <rdf:RDF>
      <cc:Work
         rdf:about="">
        <dc:format>image/svg+xml</dc:format>
        <dc:type
           rdf:resource="http://purl.org/dc/dcmitype/StillImage" />
        <dc:title />
      </cc:Work>
    </rdf:RDF>
  </metadata>
  <g
     transform="matrix(2.9970704,0,0,2.9970704,0.01762068,-850.35806)"
     id="layer1"
     style="stroke-width:0.33365917">
    <path
       style="fill:#000000;stroke-width:0.33365914"
       d="m 6.7626242,291.1773 c 0.2997837,-0.014 0.5745148,-0.1988 0.636198,-0.5038 0.1627346,-0.40538 -0.1165329,-0.90043 -0.559127,-0.94205 -0.3958009,-0.0971 -0.8931071,0.15776 -0.904141,0.59408 -0.083033,0.22765 0.061327,0.42738 0.234525,0.54064 0.024276,0.16431 0.2717023,0.24522 0.4264533,0.29515 -0.02346,-0.0475 0.1638499,0.0734 0.1660917,0.016 z m -0.036824,0.12856 c -0.3911384,-0.0283 -0.7728025,-0.31101 -0.9075112,-0.6764 -0.01807,-0.29282 0.021131,-0.61643 0.2738476,-0.8011 0.1863016,-0.19676 0.5057181,-0.2326 0.760653,-0.20072 0.3283327,0.0317 0.6338837,0.27281 0.670028,0.61552 0.088076,0.32709 -0.065834,0.65582 -0.271859,0.90438 -0.1715499,0.0841 -0.3450466,0.12793 -0.5251584,0.15832 z m -0.2369636,5.53561 c 0.201465,-0.0292 0.4940179,0.0229 0.519154,-0.25392 0.1944917,-0.42077 -0.044211,-0.84013 -0.1097404,-1.25769 0.026491,-0.2292 0.1648124,-0.43889 0.335999,-0.5806 0.347783,-0.0861 0.7166383,-0.0844 1.064686,-0.0737 0.3207222,0.0482 0.567649,0.34798 0.5018762,0.6733 0.1159193,0.31495 0.2731848,0.63697 0.5991262,0.7841 0.199905,0.15914 0.4096612,-0.0948 0.597717,-0.15993 0.2007634,-0.13928 0.1087404,-0.5133 0.068265,-0.72911 -0.0623,-0.27011 -0.2693697,-0.11363 -0.3790104,-0.3329 -0.2068069,-0.26462 -0.4447835,-0.57542 -0.3928447,-0.92462 0.1174498,-0.27255 0.365233,-0.43349 0.5480011,-0.64925 0.208232,-0.14943 0.481957,-0.33036 0.719429,-0.1252 0.344169,0.22655 0.568904,0.57207 0.97396,0.7432 0.190082,0.0898 0.517164,0.0976 0.57481,-0.16232 0.132186,-0.15357 0.348535,-0.36579 0.200547,-0.5722 -0.1363,-0.25183 -0.380406,-0.51354 -0.68894,-0.49328 -0.346791,-0.0442 -0.626056,-0.24304 -0.85164,-0.4994 -0.0606,-0.17516 0.04458,-0.37068 0.05442,-0.5558 0.06244,-0.24407 0.08221,-0.54556 0.279548,-0.7163 0.377875,-0.18726 0.817057,-0.13085 1.198095,0.0213 0.237222,0.0604 0.558098,-0.0333 0.67828,-0.2404 0.03425,-0.22017 0.08004,-0.46821 0.08602,-0.673 -0.226746,-0.14723 -0.475427,-0.29269 -0.755511,-0.227 -0.438253,-0.0707 -0.869093,0.34937 -1.29887,0.1025 -0.186944,-0.26756 -0.226227,-0.61437 -0.28283,-0.92984 0.0077,-0.28687 0.169079,-0.61043 0.477519,-0.6729 0.29654,-0.0327 0.590793,-0.14185 0.77532,-0.3877 0.136455,-0.17314 0.390758,-0.33749 0.23908,-0.5837 -0.08001,-0.21562 -0.204271,-0.51522 -0.49041,-0.4253 -0.394362,0.0309 -0.765998,0.23136 -0.999157,0.5543 -0.243708,0.19666 -0.584504,0.22821 -0.846427,0.0341 -0.2527985,-0.15565 -0.5080009,-0.38554 -0.530018,-0.6762 -0.081977,-0.20896 0.1168175,-0.40351 0.21296,-0.5786 0.2927002,-0.29941 0.680193,-0.64631 0.583264,-1.11514 -0.1882111,-0.18081 -0.4263814,-0.32007 -0.672711,-0.4028 -0.3735065,0.11729 -0.4730878,0.52864 -0.506676,0.8737 -0.036246,0.25205 -0.1890162,0.56365 -0.453558,0.60742 -0.3542679,-0.0626 -0.7221988,-0.0587 -1.0626063,-0.15946 -0.3223908,-0.19512 -0.2290051,-0.60642 -0.2282501,-0.91209 0.065993,-0.18194 0.089932,-0.37906 0.135983,-0.5572 0.1495827,-0.23004 -0.026092,-0.53157 -0.2302751,-0.6473 -0.2586567,-0.0459 -0.5427766,0.0439 -0.8102386,0.0106 -0.2767986,0.18914 -0.3074376,0.57296 -0.13726,0.85122 0.1145667,0.33402 0.3131287,0.85565 -0.08925,1.07833 -0.4009279,0.1288 -0.85301,0.49964 -1.268332,0.2195 -0.1969178,-0.0915 -0.2080905,-0.35491 -0.269383,-0.5176 -0.097774,-0.27705 -0.096005,-0.67439 -0.419908,-0.8038 -0.1432932,-0.0791 -0.3372865,-0.19519 -0.481502,-0.0478 -0.1514578,0.1194 -0.4317738,0.16031 -0.4690559,0.3564 -0.046644,0.31267 0.028081,0.65276 0.329762,0.7968 0.338094,0.15933 0.6080166,0.56464 0.411818,0.94227 -0.1810894,0.29067 -0.4769759,0.52202 -0.787323,0.6652 -0.3687455,0.12378 -0.7138846,-0.176 -0.888413,-0.47342 -0.1976078,-0.28557 -0.6173652,-0.26873 -0.901873,-0.3752 -0.1785629,0.17326 -0.38052484,0.39284 -0.45845375,0.6197 0.16120785,0.36626 0.46407655,0.67432 0.87856635,0.7275 0.3853179,0.0914 0.7971799,0.43198 0.6793887,0.8706 -0.017996,0.29392 -0.099421,0.60992 -0.2888516,0.82312 -0.2980797,0.15943 -0.6748921,0.0893 -0.9882715,0.003 -0.33520007,-0.10235 -0.75235984,-0.0816 -1.03076945,0.1296 -0.007685,0.23921 -0.14019052,0.61018 0.0670007,0.77439 0.36817624,0.21093 0.82925939,0.13668 1.22439099,0.0443 0.2888842,-0.0288 0.6663438,-0.003 0.7583888,0.33732 0.053679,0.2709 0.2215167,0.52992 0.187069,0.79092 0.1289929,0.3328 -0.2829732,0.43474 -0.486766,0.58295 -0.3619295,0.11144 -0.7636253,0.19387 -0.98025169,0.5319 -0.10782923,0.12595 -0.30178641,0.28422 -0.1493061,0.4523 0.14142837,0.1746 0.17238006,0.54581 0.49046389,0.4349 0.3696633,0.003 0.7253341,-0.17811 0.901775,-0.50382 0.2008789,-0.1893 0.4974493,-0.30585 0.777995,-0.29604 0.2445313,0.1689 0.4299343,0.43301 0.648563,0.6141 0.1588984,0.2286 0.2297664,0.54028 0.031725,0.7686 -0.1853152,0.32738 -0.5740234,0.54109 -0.6143935,0.94582 -0.090736,0.21713 -0.092658,0.50841 0.166146,0.5984 0.1818615,0.11899 0.400651,0.28704 0.588313,0.0889 0.1831309,-0.19161 0.4117298,-0.36543 0.3980847,-0.6607 0.082448,-0.31227 0.2682776,-0.6107 0.506191,-0.8222 0.3610493,-0.0643 0.7171423,0.0792 1.043195,0.20741 0.2808392,0.097 0.4425179,0.40203 0.4486355,0.6887 -0.031093,0.30389 -0.3543112,0.51527 -0.2264519,0.8423 0.045346,0.2689 0.1550186,0.62563 0.4955653,0.5919 l 0.068917,-0.004 z m -0.205392,0.11629 c -0.2864224,0.001 -0.3481622,-0.29218 -0.419015,-0.52763 -0.1069403,-0.26953 -0.087554,-0.57597 0.1050074,-0.7997 0.091,-0.18149 0.126765,-0.3857 -0.00636,-0.5623 -0.1401315,-0.27593 -0.5070325,-0.32058 -0.780289,-0.4077 -0.1937892,-0.0537 -0.4506327,-0.12289 -0.585404,0.0803 -0.1539154,0.14516 -0.2503756,0.36586 -0.335366,0.5628 -0.023071,0.20444 -0.00534,0.46445 -0.2320304,0.5512 -0.1482011,0.154 -0.3452094,0.4695 -0.591696,0.3445 -0.163749,-0.11642 -0.3459638,-0.24723 -0.534019,-0.30858 -0.1626856,-0.40387 0.018114,-0.88519 0.3090314,-1.18444 0.2132192,-0.25185 0.6112986,-0.59316 0.32806,-0.94718 -0.165647,-0.23856 -0.4087934,-0.45846 -0.634706,-0.6465 -0.3817233,-0.0845 -0.6539158,0.25194 -0.894847,0.493 -0.2680961,0.25614 -0.7041638,0.26808 -1.0196865,0.29783 -0.1920143,-0.18875 -0.2473362,-0.47548 -0.4296149,-0.6622 0.17404282,-0.3347 0.4389296,-0.68349 0.8109894,-0.8261 0.3183542,-0.10555 0.6958494,-0.19206 0.909773,-0.47361 0.025063,-0.36222 -0.1161541,-0.74544 -0.280558,-1.06891 -0.4218342,-0.31738 -0.9537957,0.0803 -1.42447083,-0.0427 -0.22166229,-0.0565 -0.59166085,-0.045 -0.56324461,-0.35996 -0.01880568,-0.2617 -0.03483524,-0.5425 0.05715569,-0.7872 0.29146023,-0.0563 0.57525015,-0.20486 0.88836305,-0.143 0.3307599,0.0506 0.7162076,0.21757 1.0348703,0.0929 0.3414321,-0.12896 0.3029627,-0.57674 0.3474283,-0.87536 0.033827,-0.25187 -0.1808447,-0.4839 -0.393534,-0.55031 -0.3043755,-0.16629 -0.739727,-0.15234 -0.925183,-0.4982 -0.093442,-0.15482 -0.25951922,-0.31431 -0.2787423,-0.4834 0.20910009,-0.17894 0.3260482,-0.47966 0.5492601,-0.6645 0.177707,-2.5e-4 0.3567,0.10064 0.5314768,0.1253 0.2835283,0.0438 0.4850118,0.24731 0.628078,0.479 0.1845539,0.21654 0.4801035,0.34548 0.757348,0.19775 0.2949842,-0.20852 0.7283873,-0.43227 0.6815064,-0.85852 -0.045488,-0.4032 -0.5083141,-0.45265 -0.708049,-0.73904 -0.1672876,-0.21749 -0.1034338,-0.46681 -0.09053,-0.7215 0.037526,-0.204 0.3096395,-0.22173 0.452431,-0.3422 0.1567046,-0.0523 0.2526655,-0.2123 0.428111,-0.1049 0.2274551,0.0994 0.4792644,0.20798 0.539253,0.4704 0.1419958,0.19038 0.1039595,0.45013 0.207826,0.64751 -0.005,0.30914 0.3427965,0.46672 0.607483,0.37493 0.2848144,-0.0817 0.575234,-0.20542 0.809554,-0.3749 0.2268102,-0.31534 -0.042048,-0.7016 -0.1124626,-1.02683 -0.1047186,-0.253 -0.064146,-0.55598 0.132176,-0.7463 0.1076502,-0.16259 0.4426495,-0.0184 0.6442238,-0.0769 0.1865245,-0.0125 0.4247777,-0.10139 0.523889,0.12401 0.1885968,0.192 0.2595545,0.47305 0.140903,0.7242 -0.1054323,0.34355 -0.1859186,0.71972 -0.1216129,1.07293 0.076176,0.23035 0.313995,0.27127 0.529846,0.2702 0.2403962,-0.001 0.4966506,0.11198 0.727544,0.0271 0.3490568,-0.2654 0.2138536,-0.7678 0.411421,-1.10577 0.1328935,-0.16042 0.3294592,-0.3684 0.550234,-0.3347 0.2585768,0.11756 0.4863737,0.28351 0.7004807,0.4715 0.05774,0.3559 -0.100756,0.70519 -0.3510287,0.95542 -0.1832484,0.17516 -0.3810979,0.37324 -0.444692,0.6335 -0.061419,0.22727 0.1192321,0.47208 0.28818,0.6089 0.2374297,0.26458 0.7277837,0.33354 0.9487787,0.0125 0.205719,-0.22674 0.472906,-0.41066 0.77526,-0.4574 0.231142,-0.0518 0.577844,-0.13735 0.69612,0.13952 0.127786,0.19697 0.201705,0.41651 0.21535,0.6485 -0.296427,0.28904 -0.526518,0.76861 -0.99602,0.7451 -0.27007,0.005 -0.500773,0.18699 -0.53336,0.4572 -0.109451,0.26321 0.108594,0.5231 0.11966,0.7886 0.04144,0.29039 0.399106,0.30333 0.621759,0.20211 0.273213,-0.0941 0.56657,-0.19667 0.84956,-0.1066 0.272407,-0.0137 0.536858,0.14229 0.72576,0.32375 -0.102738,0.25478 0.02403,0.73966 -0.212275,0.85644 -0.285451,0.23186 -0.679886,0.21786 -1.001293,0.0571 -0.282445,-0.0737 -0.647691,-0.0628 -0.858721,0.1545 -0.15386,0.3117 -0.193092,0.67118 -0.219927,1.01059 0.151285,0.29364 0.4857,0.44742 0.80398,0.48509 0.381776,-0.001 0.606361,0.37926 0.79447,0.66077 0.0606,0.2722 -0.271291,0.47927 -0.35109,0.7254 -0.298387,0.23965 -0.730001,0.0399 -0.9923,-0.17772 -0.188943,-0.12653 -0.347227,-0.32101 -0.53475,-0.4491 -0.159796,-0.20421 -0.458804,-0.1699 -0.6286787,0.009 -0.099063,0.14375 -0.2544352,0.22961 -0.393709,0.3571 -0.2283754,0.19112 -0.1251871,0.33885 -0.1325606,0.5759 0.083846,0.28452 0.3796369,0.41655 0.544987,0.6476 0.2749743,0.22327 0.2074833,0.58248 0.2092853,0.8856 0.05848,0.19386 -0.20496,0.20259 -0.3123343,0.3058 -0.1774286,0.12157 -0.4270053,0.21924 -0.5898717,0.029 -0.2921311,-0.15935 -0.4707565,-0.43166 -0.5795254,-0.7374 -0.054727,-0.21657 0.00502,-0.53685 -0.2819096,-0.6139 -0.2714595,-0.14347 -0.5970576,-0.0106 -0.886761,-0.047 -0.1914622,0.0143 -0.3675052,0.0874 -0.442098,0.2761 -0.2202442,0.26871 -0.016226,0.60599 0.053621,0.8947 0.039824,0.29682 0.00475,0.64995 -0.178634,0.8967 -0.2048652,0.0924 -0.482675,0.0475 -0.7075383,0.0906 z"
       id="path13434"
       inkscape:connector-curvature="0" />
  </g>
</svg>
