<?xml version="1.0" encoding="UTF-8" standalone="no"?>
<!-- Created with Inkscape (http://www.inkscape.org/) -->

<svg
   xmlns:dc="http://purl.org/dc/elements/1.1/"
   xmlns:cc="http://creativecommons.org/ns#"
   xmlns:rdf="http://www.w3.org/1999/02/22-rdf-syntax-ns#"
   xmlns:svg="http://www.w3.org/2000/svg"
   xmlns="http://www.w3.org/2000/svg"
   xmlns:sodipodi="http://sodipodi.sourceforge.net/DTD/sodipodi-0.dtd"
   xmlns:inkscape="http://www.inkscape.org/namespaces/inkscape"
   width="35"
   height="35"
   viewBox="0 0 9.2604165 9.2604169"
   version="1.1"
   id="svg4694"
   inkscape:version="0.92.4 (5da689c313, 2019-01-14)"
   sodipodi:docname="faceb.svg">
  <defs
     id="defs4688" />
  <sodipodi:namedview
     id="base"
     pagecolor="#ffffff"
     bordercolor="#666666"
     borderopacity="1.0"
     inkscape:pageopacity="0.0"
     inkscape:pageshadow="2"
     inkscape:zoom="22.4"
     inkscape:cx="-3.2884506"
     inkscape:cy="13.446276"
     inkscape:document-units="mm"
     inkscape:current-layer="layer1"
     showgrid="false"
     inkscape:window-width="2560"
     inkscape:window-height="1365"
     inkscape:window-x="-9"
     inkscape:window-y="-9"
     inkscape:window-maximized="1"
     units="px" />
  <metadata
     id="metadata4691">
    <rdf:RDF>
      <cc:Work
         rdf:about="">
        <dc:format>image/svg+xml</dc:format>
        <dc:type
           rdf:resource="http://purl.org/dc/dcmitype/StillImage" />
        <dc:title></dc:title>
      </cc:Work>
    </rdf:RDF>
  </metadata>
  <g
     inkscape:label="Layer 1"
     inkscape:groupmode="layer"
     id="layer1"
     transform="translate(0,-287.73957)">
    <path
       style="fill:#000000;stroke-width:1"
       d="m 4.5432009,295.15481 c 0.1380393,-0.0307 0.2800691,-0.0234 0.4204287,-0.0238 0.00609,-0.38027 0.013094,-0.76321 0.056226,-1.14007 -0.00588,-0.29747 0.049448,-0.59744 0.062044,-0.88999 -0.1318865,-0.11431 0.045367,-0.34657 0.170509,-0.21664 0.080983,-0.007 0.2449903,-0.15587 0.3775775,-0.0549 0.2313836,0.0166 0.4489852,-0.0796 0.3833769,-0.3495 -0.031897,-0.16868 0.1536697,-0.52726 -0.060802,-0.56568 -0.1839165,0.0896 -0.4063668,0.0656 -0.6071818,0.10158 -0.202142,0.0717 -0.5080387,0.036 -0.4545824,-0.24781 -0.1171931,-0.24011 0.1251099,-0.41474 0.2612363,-0.56814 0.1344108,-0.0913 0.2766652,0.01 0.4104105,-0.0837 0.1031595,0.0198 0.3016773,0.10122 0.2882843,-0.0843 0.022471,-0.2093 -0.040132,-0.42104 -0.016898,-0.62296 -0.1714211,-0.046 -0.3941838,0.0196 -0.5842976,-0.021 -0.2271541,0.0227 -0.4438915,0.10145 -0.6328503,0.22703 -0.1899834,0.11083 -0.4717375,0.22064 -0.4429426,0.4928 -0.03533,0.21123 -0.016485,0.49626 -0.2977414,0.49384 -0.1795069,0.043 -0.3829093,0.0265 -0.5686215,0.0515 -0.064878,0.31731 -0.04106,0.65021 -0.00611,0.97108 0.06401,0.20237 0.2633808,-0.14087 0.3723363,0.0269 0.240339,-0.0726 0.3691249,0.16861 0.3628089,0.38423 -0.046874,0.20209 -0.038653,0.41426 0.020512,0.60971 0.00183,0.25445 -0.078339,0.49928 -0.093612,0.75187 0.033804,0.22153 0.050214,0.44883 0.087259,0.6694 0.1271464,0.13631 0.3208546,0.12648 0.4926366,0.0885 z m 0.302135,1.80533 c -0.1837315,-0.0388 -0.3713895,-0.0727 -0.562591,-0.0578 -0.2439739,0.0244 -0.4877663,-0.0623 -0.7250815,-0.0163 -0.1807321,-0.0493 -0.3721612,-0.0301 -0.5388929,-0.0929 -0.1763224,-0.0483 -0.3547415,-0.14754 -0.5222048,-0.16939 -0.028307,-0.23297 -0.3112631,-0.2333 -0.465919,-0.34642 -0.1161245,-0.14767 -0.287087,-0.21667 -0.3812119,-0.36755 -0.067056,-0.18983 -0.3015584,-0.21595 -0.3677754,-0.39463 -0.1714914,-0.10938 -0.2317089,-0.28976 -0.35424472,-0.43989 -0.077284,-0.19647 -0.201346,-0.37037 -0.27663732,-0.56718 -0.0539781,-0.20644 -0.11911184,-0.4169 -0.12233304,-0.63173 -0.0838897,-0.20814 -0.063921,-0.45149 -0.15777628,-0.6548 -0.0136818,-0.22426 -0.0518015,-0.44969 -0.11191444,-0.65912 0.007317,-0.21131 -0.0516907,-0.42548 0.002101,-0.63685 0.0338102,-0.21871 0.0775454,-0.4417 0.0972742,-0.65526 0.0430272,-0.19326 0.10823313,-0.37867 0.16029435,-0.56706 0.0567397,-0.16288 0.10090221,-0.32224 0.15005472,-0.47405 0.089138,-0.16902 0.1849155,-0.33582 0.2792205,-0.49904 0.16410393,-0.15241 0.27264763,-0.35149 0.44077013,-0.48371 0.098968,-0.15761 0.2487727,-0.29274 0.3619405,-0.41964 0.1849889,-0.0708 0.3013111,-0.24987 0.473321,-0.32844 0.1418973,-0.18876 0.3998798,-0.17244 0.5912128,-0.26025 0.197553,-0.0557 0.3784,-0.17233 0.5724043,-0.23586 0.1976532,-0.0336 0.3583595,-0.15578 0.545383,-0.15764 0.2137486,-0.008 0.4211438,-0.0519 0.6354596,-0.0629 0.2104377,-0.007 0.4329106,0.0168 0.6517119,0.0528 0.2018055,1.1e-4 0.3707941,0.0788 0.5473463,0.13063 0.1467658,0.10602 0.3544684,0.069 0.4878379,0.21158 0.1888924,0.11971 0.398738,0.18231 0.5858062,0.31003 0.1639322,0.12325 0.2762004,0.27586 0.4679515,0.36687 0.1501376,0.13815 0.2958777,0.28124 0.4534076,0.41952 0.1259813,0.15429 0.2907951,0.27555 0.3854542,0.44798 0.1535083,0.13204 0.2329001,0.31136 0.298676,0.5038 0.035907,0.19972 0.1778459,0.34611 0.2509306,0.51532 0.084428,0.20134 0.1470835,0.42449 0.2350455,0.6236 -0.00969,0.22831 0.1345535,0.43254 0.1070557,0.66411 -0.012183,0.49515 -0.013918,0.9905 -0.02247,1.48557 -0.011971,0.19441 -0.070365,0.37968 -0.107482,0.56103 -0.082419,0.21268 -0.079687,0.45579 -0.2465062,0.63197 -0.074549,0.18827 -0.252399,0.266 -0.3214269,0.44896 -0.094952,0.16598 -0.226587,0.27699 -0.3252399,0.43723 -0.046468,0.20615 -0.2301986,0.30879 -0.3983782,0.39822 -0.1542131,0.0921 -0.259803,0.2292 -0.4213052,0.30651 -0.130151,0.13877 -0.3375625,0.18011 -0.5093695,0.27165 -0.1860601,0.0748 -0.2840949,0.17526 -0.4871482,0.18714 -0.1907834,0.0824 -0.4092502,0.0589 -0.5983665,0.13971 -0.2357304,0.0215 -0.4680116,0.0637 -0.7059579,0.0713 l -0.033313,-0.001 -0.017092,-0.006 z"
       id="path1656-7"
       inkscape:connector-curvature="0" />
  </g>
</svg>
