<?xml version="1.0" encoding="UTF-8" standalone="no"?>
<svg
   xmlns:dc="http://purl.org/dc/elements/1.1/"
   xmlns:cc="http://creativecommons.org/ns#"
   xmlns:rdf="http://www.w3.org/1999/02/22-rdf-syntax-ns#"
   xmlns:svg="http://www.w3.org/2000/svg"
   xmlns="http://www.w3.org/2000/svg"
   xmlns:sodipodi="http://sodipodi.sourceforge.net/DTD/sodipodi-0.dtd"
   xmlns:inkscape="http://www.inkscape.org/namespaces/inkscape"
   id="svg1114"
   version="1.1"
   viewBox="0 0 8.4666662 8.4666662"
   height="32"
   width="32"
   sodipodi:docname="faviconEngr.svg"
   inkscape:version="0.92.4 (5da689c313, 2019-01-14)">
  <sodipodi:namedview
     pagecolor="#ffffff"
     bordercolor="#666666"
     borderopacity="1"
     objecttolerance="10"
     gridtolerance="10"
     guidetolerance="10"
     inkscape:pageopacity="0"
     inkscape:pageshadow="2"
     inkscape:window-width="1803"
     inkscape:window-height="1153"
     id="namedview9"
     showgrid="false"
     inkscape:zoom="22.627417"
     inkscape:cx="16.163427"
     inkscape:cy="18.525582"
     inkscape:window-x="0"
     inkscape:window-y="0"
     inkscape:window-maximized="0"
     inkscape:current-layer="svg1114" />
  <defs
     id="defs1108" />
  <metadata
     id="metadata1111">
    <rdf:RDF>
      <cc:Work
         rdf:about="">
        <dc:format>image/svg+xml</dc:format>
        <dc:type
           rdf:resource="http://purl.org/dc/dcmitype/StillImage" />
        <dc:title />
      </cc:Work>
    </rdf:RDF>
  </metadata>
  <path
     style="fill:#000000;stroke:#000000;stroke-width:0.26458332;stroke-miterlimit:4;stroke-dasharray:none;stroke-opacity:1"
     d="M 4.4852452,5.0057522 C 4.6539632,4.987313 4.8425261,4.9232936 4.9536192,4.7789034 5.1081461,4.6876908 5.1869563,4.4998155 5.2412782,4.3353034 5.285286,4.0940324 5.2484581,3.8156437 5.0237351,3.6717384 4.9066506,3.6004682 4.7782112,3.5521777 4.6457181,3.5017992 4.4792859,3.4665069 4.265981,3.4617092 4.1176761,3.59379 3.9721076,3.595403 3.9037963,3.8014747 3.8125561,3.903652 3.7149237,4.1065318 3.6570893,4.3615224 3.8117731,4.556528 3.9063105,4.8290299 4.1824246,5.0560955 4.4859211,5.021867 Z M 4.4018302,5.1361068 C 4.1266017,5.111135 3.8711422,4.9524944 3.7420082,4.7035388 3.6610126,4.5226214 3.5327156,4.3041533 3.6306772,4.1067403 3.6388128,3.9292528 3.7593645,3.7714164 3.8592209,3.6299622 3.9687881,3.542867 4.0813238,3.4388436 4.2257931,3.3909138 4.3994176,3.3069457 4.5863929,3.3405516 4.7727171,3.4109289 4.9057266,3.4619081 5.0393689,3.5221354 5.1528561,3.61763 5.3274743,3.792393 5.4043592,4.0627449 5.3583343,4.307228 5.3051371,4.5296102 5.2014006,4.7686482 5.0102503,4.911587 4.8909718,5.004395 4.7742136,5.1044233 4.6154993,5.123842 c -0.07081,0.014876 -0.1427713,0.00978 -0.2136691,0.012265 z m -1.079292,2.8490075 c 0.235483,-0.1187021 0.4246045,-0.323501 0.659665,-0.444836 0.1490016,-0.1466897 0.3277716,-0.2740046 0.387654,-0.48888 0.098623,-0.2144563 0.089711,-0.4425667 0.042765,-0.6706 -0.00952,-0.1524928 0.024159,-0.322246 0.171956,-0.392645 0.1327815,-0.062146 0.2742605,-0.1653664 0.414102,-0.204844 0.1979289,-0.0015 0.4244392,-0.1212698 0.6000542,0.00313 0.1371843,0.1068493 0.2909349,0.2094192 0.3362353,0.384965 0.07086,0.087724 0.1255345,0.2196025 0.2388897,0.2656901 0.1192654,0.068819 0.2274674,0.09002 0.3505728,0.1190513 0.1553803,-0.028222 0.3377679,-0.014873 0.5082072,-0.026643 0.182067,-0.01936 0.4101075,0.070078 0.5612214,-0.043942 C 7.7153339,6.3275557 7.5754918,6.0273596 7.5159354,5.8272766 7.4173675,5.6027781 7.2861879,5.3906009 7.1619134,5.1800396 7.0123782,5.1064511 7.0549673,4.8881137 6.8456854,4.9025431 6.6128288,4.9372166 6.306742,4.9248539 6.1893386,4.6834086 6.0843791,4.4615159 6.1318228,4.2178539 6.1262636,3.9703014 6.1496097,3.8152233 6.127521,3.5982677 6.3347782,3.5859614 6.4883663,3.4943891 6.6830821,3.5456619 6.8501262,3.4888767 7.1295734,3.4330687 7.2722927,3.135844 7.3627672,2.8923997 7.4275553,2.5879835 7.5832246,2.3092928 7.5946442,1.9964527 7.5041672,1.7932309 7.1362496,1.9203696 6.9350665,1.8670063 6.6727075,1.8688631 6.3542255,1.7944801 6.140834,1.9882052 5.8926823,2.094337 5.8871751,2.4032049 5.722344,2.5863342 5.642738,2.7117512 5.4734522,2.8069169 5.321053,2.7850673 5.1835892,2.8696129 5.0461917,2.6809916 4.894117,2.6649403 4.7206187,2.5765721 4.4999578,2.5429072 4.374499,2.3941063 4.3623586,2.2014695 4.4121962,2.007395 4.3682119,1.8023473 4.4363959,1.5201757 4.207801,1.2897097 4.0200409,1.1146963 3.8075521,0.91480923 3.549891,0.7120091 3.2620009,0.70245852 3.1125127,0.76730184 3.0826333,0.95967053 3.0420279,1.1048439 c -0.043197,0.1934215 -0.1535833,0.3643337 -0.170605,0.572232 -0.028588,0.205643 -0.083716,0.4541258 0.078479,0.623836 0.086259,0.1800264 0.2731358,0.2872176 0.283796,0.502761 0.043014,0.1788653 -0.046342,0.3557294 -0.143202,0.499745 C 2.9595545,3.4622485 2.7841359,3.5952303 2.632895,3.7329959 2.462663,3.8034693 2.2620689,3.7780915 2.119132,3.6508669 1.9838237,3.5754298 1.8603818,3.5223367 1.7016127,3.5167377 1.3721838,3.6466882 1.048544,3.8074036 0.78061127,4.0454372 c -0.060758,0.1478886 -0.4519663,0.2923467 -0.18472452,0.4163093 0.2174849,0.1760358 0.44489045,0.3806097 0.71055255,0.50505 0.2171176,0.1469644 0.5152047,0.1764426 0.742852,0.057668 0.1956783,-0.06126 0.3834722,-0.1898748 0.5907481,-0.078802 0.1189751,0.018636 0.224028,0.1347856 0.314143,0.161492 0.2387459,0.2097234 0.4895365,0.4968327 0.404241,0.8429211 -0.032318,0.2103888 -0.2150803,0.3216123 -0.374976,0.433992 -0.2219501,0.2710649 -0.1694798,0.6674178 -0.087295,0.986573 0.052194,0.2561588 0.2581394,0.4258769 0.388489,0.638821 0.047541,0.027111 0.037701,-0.00368 0.037897,-0.024347 z M 3.2233472,8.0880684 C 3.1249624,8.0340801 3.0821033,7.8448935 2.9719952,7.7592764 2.7705837,7.5205656 2.7345388,7.1803146 2.7212183,6.8789427 2.7264856,6.6301734 2.7675829,6.3473788 3.0049345,6.2134857 3.1660945,6.0921222 3.3262108,5.9067821 3.2619515,5.6891597 3.1688318,5.4511586 3.0100553,5.2367776 2.7767475,5.1203537 2.5658235,4.9583597 2.2674942,5.0094555 2.0558466,5.1266567 1.8753989,5.181129 1.670277,5.23781 1.4751476,5.1614777 1.26941,5.0495343 1.0447831,4.9554297 0.8681593,4.7997844 0.70945874,4.6982055 0.56070321,4.5575795 0.417088,4.4327544 0.21220658,4.323513 0.4525747,4.1967287 0.5240624,4.0797494 0.66743383,3.9764625 0.75726004,3.8228229 0.9270271,3.7528534 1.1639549,3.562577 1.4435421,3.4591545 1.7232781,3.3549124 1.9593208,3.324534 2.1479526,3.5122359 2.3479481,3.5759955 2.4601629,3.6376029 2.6187213,3.5611877 2.7132151,3.4444485 2.8882962,3.3253723 3.0383919,3.1527394 3.1095101,2.9487125 3.1196467,2.8171511 3.1627136,2.6570428 3.0196568,2.5465855 2.9144671,2.4308547 2.8389415,2.2868285 2.7496878,2.1556015 2.6452511,1.893482 2.7510899,1.6193039 2.8003318,1.3597455 2.9077117,1.1258607 2.914102,0.85434543 3.0622788,0.6376012 3.1102981,0.51508948 3.289515,0.47795416 3.4127178,0.53405455 3.6543834,0.64637763 3.9044689,0.77496406 4.0862628,0.97076495 4.2366845,1.1055357 4.3734115,1.2616233 4.4699023,1.4436442 c 0.046549,0.2011758 0.030477,0.4514566 0.027395,0.6731689 -0.076148,0.1859752 0.055376,0.2376472 0.198468,0.2923192 0.1562961,0.082248 0.3226276,0.1549071 0.4875251,0.2118515 0.1459091,-6.55e-5 0.2785956,-0.00433 0.3983599,-0.1023476 0.2075979,-0.1526649 0.1634328,-0.4909911 0.401687,-0.6007434 0.1064564,-0.1081329 0.2729882,-0.1704717 0.404389,-0.2047127 0.2166385,-0.0094 0.4728141,0.015832 0.6868143,0.01 0.1484291,0.048172 0.3256055,0.00329 0.456095,0.02163 0.2173206,0.00532 0.1555571,0.3188953 0.117684,0.4698217 -0.089594,0.314415 -0.1668788,0.6376027 -0.2929605,0.936928 -0.012256,0.040993 -0.1142781,0.1951392 -0.191925,0.2593099 -0.2313148,0.2543216 -0.6156602,0.1409553 -0.890077,0.3091208 -0.035659,0.1863475 -0.065474,0.395697 -0.01507,0.5795123 -0.077393,0.1710407 0.043813,0.4176956 0.2454999,0.4628017 0.1772879,0.00643 0.3195215,-0.1010923 0.517663,-0.027241 0.1242036,0.095934 0.2359032,0.2153702 0.27835,0.375822 0.1276921,0.2690408 0.2851691,0.5230414 0.371102,0.813879 0.058335,0.2092087 0.1500401,0.4748174 0.016588,0.671665 -0.1461897,0.024089 -0.3284378,0.033434 -0.49278,0.00712 C 6.9598671,6.5887084 6.7238072,6.6260073 6.4901543,6.6315814 6.3321752,6.5834893 6.2084394,6.5506295 6.0560527,6.4533699 5.8680525,6.3444794 5.8497928,6.0961529 5.6776825,5.9819127 5.5359183,5.9488792 5.4333873,5.7474425 5.2678067,5.8484942 5.1110996,5.908769 4.9863934,6.0073003 4.8124007,6.0190342 4.7072658,6.0519315 4.557615,6.0942179 4.5412293,6.2373164 c -0.022789,0.2212077 0.098431,0.4339691 0.00209,0.646318 -0.040616,0.1955594 -0.128229,0.3729534 -0.275375,0.509607 -0.2306754,0.2595536 -0.5430591,0.4087212 -0.826372,0.606511 -0.071666,0.02708 -0.1729095,0.1214165 -0.2182211,0.088316 z"
     id="path884"
     inkscape:connector-curvature="0" />
</svg>
