<svg xmlns="http://www.w3.org/2000/svg" width="18" height="24" viewBox="0 0 18 24" class="bag-logo">
      <path
       id="path833"
       d="m 13.980451,14.652036 c 0.285246,-0.116516 0.42455,-0.390007 0.690103,-0.531392 0.186449,-0.263432 0.386266,-0.51693 0.662188,-0.706558 0.230598,-0.191582 0.41722,-0.45906 0.641486,-0.683988 0.229274,-0.166755 0.236551,-0.505205 -0.107962,-0.534695 -0.133042,-0.344974 -0.463107,-0.598519 -0.609533,-0.944031 -0.265596,-0.246597 -0.38084,-0.485205 -0.678762,-0.682421 C 14.360941,10.317726 14.092655,10.090826 13.875569,9.837172 13.654202,9.5622014 13.431737,9.3352235 13.185363,9.0861419 12.984805,8.7732282 12.688901,8.6058596 12.483378,8.3034018 12.24979,8.0592682 12.01688,7.7665412 11.731065,7.5397188 11.44454,7.3068519 11.213663,7.0132286 10.925643,6.7817538 10.609357,6.4672828 10.288271,6.1471931 9.9927448,5.8077741 9.7698847,5.5965501 9.555126,5.3565693 9.3216778,5.1331279 9.0028538,4.8125793 8.6865825,4.4867328 8.3188637,4.2240788 8.1415135,4.013961 7.8709795,3.8741261 7.7158613,3.643565 7.86469,3.3472004 8.2430903,3.1249585 8.4557706,2.8276666 8.7128603,2.6301394 8.9209445,2.397778 9.1429103,2.1645436 9.423972,1.9528121 9.7963939,1.6031724 9.3813143,1.2899769 9.2038863,0.90946911 8.7375361,0.73509548 8.5594277,0.38211374 8.3656101,0.02298249 8.1664459,0.29386637 7.924311,0.37025411 7.550744,0.3104893 7.1825625,0.45471029 6.8021461,0.44411438 6.6687349,0.58226945 6.2645098,0.47947944 6.1588793,0.626189 5.7684172,0.70059365 5.3049153,0.61024654 4.9646817,0.80138114 4.7047437,1.045958 4.4399471,1.2745185 4.2369121,1.5668314 3.866623,1.9607347 3.4854231,2.3567242 3.0630703,2.6797496 2.8471568,2.9347144 2.5665675,3.1305578 2.3375967,3.387494 2.0428944,3.6152963 1.8037555,3.9151449 1.5234946,4.152501 1.2870892,4.3716788 1.0359857,4.6112318 0.78176947,4.8075672 0.53602025,4.9265718 0.45313888,5.1669006 0.29383476,5.3389898 0.31805953,5.6101362 0.65952187,5.5795713 0.78937325,5.8064093 1.0582643,6.0140346 1.2170785,6.351661 1.5217448,6.5204781 1.7935834,6.7810519 2.0966011,7.0157892 2.3399317,7.2927001 2.6069524,7.4579768 2.723418,7.7972441 3.0665212,7.8498095 3.4746794,7.8867299 3.5231504,7.3027983 3.8954847,7.1953033 4.2295066,6.9986335 4.4734069,6.6969301 4.7461494,6.4270009 4.9206805,6.2202951 5.1121417,5.8173785 5.3993414,6.1595018 5.7146892,6.3641039 5.9342208,6.6591523 6.2338711,6.8832781 6.5881788,7.274236 6.9290131,7.671145 7.3184059,8.0291448 7.5881233,8.3341669 7.9458197,8.5515463 8.1716739,8.901499 8.4562372,9.0990339 8.6562704,9.3762481 8.9380593,9.5841612 9.1788877,9.8026857 9.4099582,10.034884 9.63485,10.277561 c 0.3339655,0.356699 0.736418,0.671273 1.03663,1.070045 0.26465,0.27582 0.487141,0.59668 0.78929,0.831987 0.175367,0.22771 0.396057,0.409678 0.594286,0.596891 0.271508,0.166599 0.431742,0.43084 0.64462,0.633812 0.153417,0.244859 0.384342,0.411612 0.576186,0.637608 0.173851,0.165918 0.30142,0.407717 0.447735,0.607814 0.07835,0.0047 0.191776,0.07339 0.256848,-0.0039 z"
       style="fill:#000000;stroke-width:2.08271408"
        />
    <path
       id="path5979-5"
       d="m 14.204441,17.927246 c 0.113347,-0.137766 -0.17214,0.01497 0,0 z"
       style="fill:#000000;stroke-width:2.08271408"
        />
    <path
       id="path837"
       d="M 3.0717103,7.3499588 C 2.8574747,7.3353773 2.7264548,7.0631538 2.5405132,6.9066455 2.3012615,6.6626286 1.9725979,6.4768191 1.7669867,6.1923667 1.5418926,6.0579639 1.3422541,5.8106574 1.0893793,5.6381774 0.75942863,5.4009243 1.0936566,5.1167829 1.2710262,4.936427 1.4818109,4.629239 1.8097145,4.4655021 2.0276032,4.1801689 2.289503,3.9846365 2.4671545,3.6955316 2.7394052,3.5052427 2.9730964,3.2475911 3.2330947,3.068878 3.4785717,2.8254852 3.7887868,2.5318308 4.0765367,2.2001711 4.4142778,1.9464546 4.6024961,1.6186911 4.8989268,1.3866971 5.1527231,1.1189084 5.3420107,1.268787 5.6973313,0.96572463 5.9354107,1.058677 6.2338555,0.94258861 6.6131871,0.94935444 6.9335509,0.85431791 7.2733782,0.79986078 7.6088737,0.72125665 7.943057,0.72572831 8.2642918,0.69487381 8.4499982,0.98630208 8.7276188,1.0805434 8.9507608,1.3488687 9.3037561,1.7610553 8.8125221,2.0009914 8.5513981,2.3236436 8.2124769,2.5599945 7.9370261,2.8695719 7.6251681,3.0850985 7.4048063,3.3844397 7.1291164,3.6557649 6.9321141,3.8695514 6.6702319,4.0299151 6.4938772,4.241108 6.1975359,4.4789016 5.9171662,4.6996075 5.6593027,4.9793531 5.3151457,5.2371291 5.0426306,5.5246437 4.77665,5.8579404 4.5121432,6.1773516 4.1996689,6.439576 3.8942832,6.7070983 3.6326576,6.8990689 3.468944,7.0188435 3.2398469,7.2470677 3.1739773,7.2218319 3.0807722,7.4814005 3.0716928,7.3499743 Z"
       style="fill:#ffffff;fill-opacity:1;stroke:none;stroke-width:2.08297443;stroke-miterlimit:4;stroke-dasharray:none;stroke-opacity:1"
        />
    <path
       id="path839"
       d="m 13.9977,7.3561802 c -0.0361,-0.070983 -0.02135,0.053835 0,0 z"
       style="fill:#ffffff;fill-opacity:1;stroke-width:2.08271408"
        />
    <path
       id="path835"
       d="M 13.857539,14.138525 C 13.649338,13.935216 13.459519,13.716059 13.262307,13.499366 13.050821,13.245883 12.801642,13.019801 12.598636,12.779399 12.429374,12.561467 12.145602,12.436202 11.998019,12.197732 11.538365,11.871308 11.207654,11.38781 10.802017,10.994873 10.583409,10.705988 10.310813,10.448079 10.063848,10.195172 9.8468654,9.8595167 9.5148558,9.6387252 9.2377796,9.3531976 8.8542875,9.0814194 8.5376896,8.7171866 8.2426723,8.3713167 7.9636364,8.1422274 7.7055551,7.8841014 7.466177,7.6103848 7.2877575,7.4384006 7.107596,7.2406421 6.917834,7.0327757 6.7174605,6.778225 6.4610998,6.5923923 6.2612008,6.3325048 6.013379,6.1440338 5.763094,5.8516392 5.5388982,5.7140246 5.513468,5.4788733 5.9569816,5.1896536 6.1748198,5.0196428 6.3999896,4.741229 6.7243177,4.5837233 6.9636666,4.3060036 7.1223525,4.1774334 7.3134754,3.9523025 7.466177,4.1552695 7.550555,4.0852975 7.9033719,4.4226597 8.0811654,4.5786839 8.4242784,4.7563646 8.6353702,5.0905576 8.9378727,5.3154397 9.2102886,5.5649179 9.3980733,5.875098 9.6682359,6.0866953 9.8405117,6.3295049 10.108444,6.4818138 10.29744,6.7101935 c 0.28072,0.339279 0.621066,0.6301823 0.91105,0.9520257 0.215151,0.1418491 0.47896,0.4172124 0.686792,0.63953 0.278656,0.2467369 0.519847,0.571275 0.777475,0.857207 0.294173,0.2718482 0.532525,0.5951691 0.8244,0.8747538 0.245011,0.201166 0.422936,0.490448 0.677678,0.692387 0.177622,0.272587 0.519547,0.39831 0.663838,0.705856 0.193429,0.263792 0.403459,0.511431 0.60957,0.770103 0.381392,0.339473 -0.175931,0.673439 -0.424155,0.884764 -0.246368,0.209223 -0.472502,0.451946 -0.649706,0.709698 -0.1408,0.111364 -0.331886,0.387904 -0.516843,0.342007 z"
       style="fill:#ffffff;fill-opacity:1;stroke-width:2.08271408"
        />
  </svg>