<?xml version="1.0" encoding="UTF-8" standalone="no"?>
<!-- Created with Inkscape (http://www.inkscape.org/) -->

<svg
   xmlns:dc="http://purl.org/dc/elements/1.1/"
   xmlns:cc="http://creativecommons.org/ns#"
   xmlns:rdf="http://www.w3.org/1999/02/22-rdf-syntax-ns#"
   xmlns:svg="http://www.w3.org/2000/svg"
   xmlns="http://www.w3.org/2000/svg"
   xmlns:sodipodi="http://sodipodi.sourceforge.net/DTD/sodipodi-0.dtd"
   xmlns:inkscape="http://www.inkscape.org/namespaces/inkscape"
   width="35"
   height="35"
   viewBox="0 0 9.2604168 9.2604168"
   version="1.1"
   id="svg2996"
   inkscape:version="0.92.4 (5da689c313, 2019-01-14)"
   sodipodi:docname="linked.svg">
  <defs
     id="defs2990" />
  <sodipodi:namedview
     id="base"
     pagecolor="#ffffff"
     bordercolor="#666666"
     borderopacity="1.0"
     inkscape:pageopacity="0.0"
     inkscape:pageshadow="2"
     inkscape:zoom="11.2"
     inkscape:cx="24.469761"
     inkscape:cy="37.840845"
     inkscape:document-units="mm"
     inkscape:current-layer="layer1"
     showgrid="false"
     inkscape:window-width="2560"
     inkscape:window-height="1365"
     inkscape:window-x="-9"
     inkscape:window-y="-9"
     inkscape:window-maximized="1"
     units="px" />
  <metadata
     id="metadata2993">
    <rdf:RDF>
      <cc:Work
         rdf:about="">
        <dc:format>image/svg+xml</dc:format>
        <dc:type
           rdf:resource="http://purl.org/dc/dcmitype/StillImage" />
        <dc:title></dc:title>
      </cc:Work>
    </rdf:RDF>
  </metadata>
  <g
     inkscape:label="Layer 1"
     inkscape:groupmode="layer"
     id="layer1"
     transform="translate(0,-287.73958)">
    <path
       style="fill:#000000;stroke-width:1"
       d="m 3.3211743,291.27948 c 0.087262,-0.0872 0.3938681,-0.11518 0.3978906,-0.3168 -0.1691765,-0.10064 0.098933,-0.28706 -0.034015,-0.37806 -0.1346133,-0.13377 -0.3026071,-0.21318 -0.4927078,-0.19523 -0.1344558,0.0634 -0.1303991,-0.07 -0.1604576,-0.10301 -0.1703884,-0.003 -0.3938865,-0.006 -0.5017115,0.16112 -0.096363,0.19922 -0.153632,0.50215 0.02624,0.67035 0.1712943,0.1352 0.4013859,0.20173 0.628335,0.21795 0.044905,0.003 0.1571946,0.0271 0.1364254,-0.0563 z m 1.3061369,3.28393 c 0.1761307,0.0432 0.3205942,-0.008 0.2591958,-0.22046 -0.00412,-0.37025 -0.060674,-0.74601 0.021945,-1.11108 0.069925,-0.16943 0.014207,-0.42307 0.1625704,-0.52148 0.083936,-0.20272 0.3770356,-0.209 0.5481929,-0.13709 0.1879509,0.13361 0.4148042,0.27683 0.40154,0.54028 0.038153,0.21479 -0.022179,0.40489 -0.028675,0.62335 0.024011,0.20507 -0.096539,0.56252 0.1776223,0.62975 0.1761151,-0.0421 0.5405871,0.12936 0.5792893,-0.11695 -0.00178,-0.19084 0.1522568,-0.37951 0.082689,-0.5588 0.1535091,-0.20306 0.108718,-0.47511 0.055249,-0.70575 0.061816,-0.23696 -0.075187,-0.40883 -0.1714051,-0.60646 -0.044863,-0.19755 -0.1431315,-0.4425 -0.3798343,-0.44641 -0.1465273,-0.0334 -0.2789093,-0.0613 -0.4491565,-0.0145 -0.1767562,-0.0102 -0.4521299,-0.1064 -0.5708153,0.0532 -0.1502909,0.11851 -0.4266435,0.0421 -0.421157,-0.18556 0.05904,-0.19853 -0.2173185,-0.0281 -0.3227403,-0.13861 -0.128813,-0.005 -0.378589,-0.13775 -0.3312188,0.13131 0.018828,0.21645 0.052161,0.43845 0.016634,0.65855 -0.048057,0.24646 -0.019488,0.48978 -0.041832,0.73884 -0.00932,0.19933 -0.037344,0.41019 -0.019382,0.5974 -0.08074,0.21344 0.030373,0.41897 0.022911,0.63595 -0.040021,0.2207 0.2800814,0.15983 0.4083797,0.15447 z m -1.9649224,0.0451 c 0.2034174,-0.03 0.4148901,-0.056 0.6210984,-0.0537 0.1289089,-0.0649 0.4216774,2e-5 0.3089231,-0.22218 0.049421,-0.22686 0.058544,-0.4707 0.049619,-0.70856 -0.014902,-0.22833 -0.028115,-0.45991 -0.00617,-0.68589 -0.093116,-0.18633 -0.032971,-0.40455 -0.07579,-0.61109 -0.046914,-0.18289 0.043741,-0.55703 -0.173824,-0.5941 -0.1921496,0.0401 -0.3961499,-0.0175 -0.5971265,0.024 -0.1243608,0.0794 -0.3621831,-0.0232 -0.2580159,0.18396 -0.019475,0.22027 -0.048867,0.46675 -0.019581,0.69407 0.00546,0.24701 0.03209,0.48313 -0.013596,0.72654 -0.012013,0.40424 -0.011416,0.81401 0.059509,1.21292 -9.87e-5,0.0674 0.062868,0.062 0.1049255,0.034 z m 1.8458281,2.36124 c -0.156087,-0.019 -0.3454521,-0.0379 -0.5008746,-0.0723 -0.2067202,0.0279 -0.3247368,-0.14412 -0.5177547,-0.18961 -0.1439466,0.0685 -0.2882666,-0.12937 -0.4857132,-0.12397 -0.2213179,-0.0434 -0.3666361,-0.2157 -0.5534645,-0.32754 -0.1812176,-0.11914 -0.4056777,-0.20057 -0.5105621,-0.40219 -0.1808874,-0.10878 -0.3540739,-0.26198 -0.508878,-0.41692 -0.1456342,-0.15305 -0.3225536,-0.28205 -0.45301373,-0.44534 -0.16845384,-0.15872 -0.28541401,-0.38859 -0.33980719,-0.613 -0.15218431,-0.13672 -0.16142023,-0.34386 -0.29488777,-0.49115 -0.0926758,-0.21131 -0.11538689,-0.43901 -0.2023525,-0.65369 -0.0256438,-0.2014 -0.0629028,-0.42987 -0.06674371,-0.65129 -0.08438559,-0.18682 0.05815315,-0.37422 -0.03013084,-0.56369 0.03025861,-0.17818 0.07943786,-0.36678 0.11836092,-0.54866 0.0555689,-0.22471 0.19062177,-0.41096 0.27326086,-0.62071 0.0364992,-0.17835 0.16890255,-0.38329 0.25666118,-0.55787 0.0456578,-0.17953 0.23341838,-0.32277 0.31472838,-0.50253 0.1648671,-0.18779 0.3239644,-0.39616 0.4971288,-0.58358 0.1474091,-0.1742 0.2954139,-0.35204 0.4657754,-0.4986 0.1950754,-0.1191 0.3378661,-0.30306 0.5502951,-0.41006 0.1919339,-0.17213 0.3926832,-0.34691 0.6640592,-0.35414 0.1936604,-0.0804 0.4002293,-0.13773 0.611494,-0.15383 0.2243053,-0.0337 0.4383176,0.0443 0.6630587,0.0303 0.256505,-0.009 0.5073879,0.0412 0.7610799,0.0672 0.209367,0.003 0.3982877,0.0967 0.6127543,0.12314 0.1921347,0.10572 0.437839,0.0616 0.5962235,0.20821 0.1697168,0.0902 0.3442856,0.1768 0.5336174,0.23573 0.1987288,0.0131 0.3118889,0.2075 0.4471208,0.34011 0.1886495,0.11217 0.3202298,0.28567 0.4601191,0.44738 0.1487224,0.15633 0.3082315,0.31923 0.4001739,0.51513 0.1380135,0.16344 0.2737664,0.33934 0.3893876,0.51995 0.1014021,0.19812 0.2687831,0.34772 0.3324548,0.55824 0.062,0.19971 0.073702,0.4001 0.1302549,0.59947 0.048803,0.22709 0.1219604,0.47608 0.042867,0.70044 -0.041299,0.21688 0.036038,0.43045 0.00355,0.64919 -0.010437,0.17972 -0.057578,0.41088 -0.050258,0.55351 -0.054816,0.19217 -0.092105,0.40558 -0.138477,0.60429 0.0109,0.22137 -0.1088865,0.41131 -0.1308138,0.62514 -0.015974,0.24306 -0.1807759,0.42659 -0.3346783,0.5941 -0.00291,0.20131 -0.2285225,0.29019 -0.32081,0.44902 -0.095913,0.16256 -0.2643083,0.25333 -0.4024062,0.38036 -0.1890201,0.12163 -0.2850995,0.36144 -0.4677199,0.46051 -0.1380863,-0.0113 -0.3366078,0.0641 -0.4653399,0.17553 -0.201886,0.091 -0.4264859,0.15475 -0.6669543,0.16129 -0.2129707,0.0504 -0.4185372,0.11443 -0.6325452,0.13504 -0.180007,0.0416 -0.3354267,0.0148 -0.4969633,0.0463 -0.1851537,-0.0842 -0.3965916,0.0326 -0.5533083,7e-4 z"
       id="path1680-8"
       inkscape:connector-curvature="0" />
  </g>
</svg>
